<svg width="13" height="13" viewBox="0 0 13 13" fill="none" xmlns="http://www.w3.org/2000/svg">
<path d="M13 4.77879C12.9967 3.95665 12.6937 3.16019 12.1412 2.52111C12.3288 1.79044 12.2702 1.02335 11.9737 0.325048C11.9448 0.258691 11.9006 0.199151 11.8442 0.150715C11.7878 0.102279 11.7206 0.0661535 11.6475 0.0449383C11.438 -0.0222879 10.6451 -0.148337 9.02926 0.832046C8.33432 0.660359 7.61739 0.579297 6.89877 0.591152C6.17915 0.579146 5.46121 0.660209 4.76528 0.832046C3.10757 -0.170746 2.24579 -0.00828258 2.07224 0.039336C1.99873 0.0614991 1.93137 0.098608 1.87499 0.148003C1.8186 0.197398 1.77458 0.257857 1.74608 0.325048C1.44877 1.02107 1.38816 1.78603 1.57253 2.5155C1.00198 3.15139 0.697829 3.95975 0.716744 4.78999C0.716744 7.888 2.61085 8.82357 4.34636 9.1541C4.25728 9.35804 4.19596 9.57167 4.16384 9.78995C4.16071 9.8132 4.16071 9.83672 4.16384 9.85997V10.7171C2.58392 10.8404 2.24579 9.97482 2.21288 9.87678C2.20522 9.85393 2.19623 9.83148 2.18595 9.80955C1.88079 9.22673 1.34361 8.77919 0.689814 8.56307C0.558077 8.52184 0.414238 8.53128 0.289941 8.58933C0.165645 8.64737 0.0710716 8.74927 0.0270269 8.87259C-0.0170178 8.99591 -0.00692579 9.13056 0.0550823 9.24691C0.11709 9.36327 0.225935 9.4518 0.357672 9.49303C0.719982 9.61556 1.02212 9.85757 1.20748 10.1737C1.41694 10.8095 2.27272 11.8151 4.15785 11.7031V12.5098C4.15785 12.6398 4.21302 12.7645 4.31122 12.8564C4.40943 12.9484 4.54262 13 4.6815 13C4.82038 13 4.95357 12.9484 5.05177 12.8564C5.14997 12.7645 5.20514 12.6398 5.20514 12.5098V9.89639C5.24487 9.61099 5.37756 9.34398 5.58516 9.13169C5.65789 9.06796 5.70956 8.98605 5.73404 8.89566C5.75852 8.80527 5.75479 8.7102 5.72329 8.62174C5.69179 8.53327 5.63384 8.45512 5.55632 8.39657C5.4788 8.33801 5.38496 8.30149 5.28594 8.29136C3.46065 8.09248 1.77301 7.52946 1.77301 4.77038C1.76088 4.43734 1.8227 4.10556 1.95455 3.79603C2.0864 3.48649 2.28542 3.20593 2.53903 2.97208C2.60724 2.90337 2.65436 2.81869 2.67543 2.72699C2.69649 2.63529 2.69072 2.53996 2.65873 2.45108C2.48245 1.97157 2.47094 1.45244 2.62581 0.966499C3.26832 1.10229 3.87169 1.36702 4.39424 1.7424C4.46139 1.784 4.53769 1.81089 4.61747 1.82107C4.69725 1.83126 4.77846 1.82447 4.85505 1.80122C5.5199 1.61179 6.21301 1.52383 6.90774 1.54072C7.6015 1.52379 8.29363 1.61175 8.95745 1.80122C9.03401 1.82468 9.11525 1.83157 9.19507 1.82138C9.27489 1.81119 9.3512 1.78419 9.41826 1.7424C9.92157 1.3814 10.4976 1.11939 11.1119 0.9721C11.2644 1.46342 11.2508 1.98689 11.073 2.47069C11.0437 2.55142 11.0377 2.63796 11.0555 2.72157C11.0734 2.80518 11.1145 2.88289 11.1747 2.94687C11.6701 3.44199 11.9507 4.0921 11.9617 4.77038C11.9617 7.52386 10.1873 8.09528 8.44876 8.29136C8.34468 8.3022 8.2465 8.34217 8.16706 8.40605C8.08762 8.46992 8.0306 8.55475 8.00346 8.64943C7.97631 8.74412 7.9803 8.84427 8.0149 8.9368C8.0495 9.02933 8.11311 9.10994 8.19741 9.1681C8.38293 9.29975 8.59837 9.6695 8.59837 10.2885V12.507C8.59837 12.637 8.65354 12.7617 8.75175 12.8536C8.84995 12.9456 8.98314 12.9972 9.12202 12.9972C9.2609 12.9972 9.39409 12.9456 9.4923 12.8536C9.5905 12.7617 9.64567 12.637 9.64567 12.507V10.2885C9.65114 9.89845 9.57489 9.51114 9.42125 9.14849C10.8276 8.86839 13 8.00285 13 4.77879Z" fill="#F4F4F4"/>
</svg>
